<!-- icon666.com - MILLIONS OF FREE VECTOR ICONS --><svg id="Layer_1" enable-background="new 0 0 66 66" viewBox="0 0 66 66" xmlns="http://www.w3.org/2000/svg"><g><path d="m17.633 27.078c-.005-.276-.258-.476-.509-.491-.276.005-.496.233-.491.509.062 3.483.026 7.048.064 10.645-2.706-3.614-4.875-6.985-6.612-10.27-.105-.199-.329-.303-.55-.254-.22.049-.38.238-.392.463l-.636 12.47c-.014.276.198.511.474.525h.026c.264 0 .485-.208.499-.475l.546-10.705c1.814 3.21 4.041 6.519 6.77 10.063.131.171.357.237.562.167.203-.071.338-.265.334-.48-.071-3.986-.015-8.133-.085-12.167z" fill="#000000" style="fill: rgb(2, 62, 242);"></path><path d="m28.729 39.789-4.974.262-.299-6.555 4.167-.161c.276-.011.491-.243.48-.519-.01-.276-.254-.501-.519-.48l-4.174.161-.236-5.177 5.179-.405c.275-.021.481-.262.459-.538s-.265-.477-.538-.459l-5.662.443c-.269.021-.473.252-.46.521l.627 13.718c.012.265.231.477.5.477h.026l5.477-.288c.276-.015.487-.25.473-.526s-.26-.491-.526-.474z" fill="#000000" style="fill: rgb(2, 62, 242);"></path><path d="m31.469 25.853c-.265.077-.418.354-.341.62 1.22 4.216 2.95 8.282 5.142 12.082.221.383.815.311.92-.136l2.064-8.807 3.761 9.781c.175.453.829.415.951-.055l3.015-11.695c.069-.268-.092-.54-.359-.609s-.541.092-.609.359l-2.625 10.182-3.783-9.838c-.079-.205-.271-.33-.501-.32-.219.015-.402.171-.453.385l-2.141 9.135c-1.857-3.406-3.342-7.014-4.42-10.744-.078-.263-.354-.414-.621-.34z" fill="#000000" style="fill: rgb(2, 62, 242);"></path><path d="m53.423 33.916c.645.184 1.118.146 1.713.281 1.509.347 2.591 2.042 2.269 3.556s-2 2.625-3.519 2.326c-1.116-.218-1.996-1.167-2.003-2.158-.002-.275-.226-.496-.5-.496-.001 0-.002 0-.004 0-.276.002-.498.228-.496.504.011 1.45 1.246 2.825 2.811 3.132 2.053.403 4.251-1.039 4.69-3.1.437-2.054-.976-4.269-3.023-4.739-.507-.116-1.225-.144-1.663-.269-1.209-.344-2.038-1.782-1.773-3.078.259-1.263 1.481-2.315 2.843-2.449 1.323-.124 2.721.539 3.557 1.704.16.224.473.276.698.115.224-.161.276-.474.115-.698-1.041-1.451-2.794-2.277-4.467-2.116-1.81.177-3.377 1.542-3.725 3.244-.373 1.812.762 3.754 2.477 4.241z" fill="#000000" style="fill: rgb(2, 62, 242);"></path><path d="m6.768 46.229c3.791 10.529 12.914 17.649 26.81 17.765.009 0 .017.001.027.001h.081.018.017.009.006c5.301-.004 10.095-1.031 14.245-3.053 4.684-2.262 8.479-5.837 10.684-10.066.766-1.463 1.362-3.039 1.829-4.8.063-.024.121-.051.183-.076 4.079-1.606 4.407-4.919 4.296-8.739-.227-7.701-.154-5.19-.343-11.8-.072-2.367-.268-5.069-4.631-5.698-3.677-11.072-14.326-18.003-25.597-17.724h-.007c-7.427-.51-20.569 4.698-26.485 17.811-2.892.303-4.937 1.32-5.93 4.138-1.061 2.997-1.219 9.518-.633 14.24.498 3.921 1.647 6.872 5.421 8.001zm1.516-25.404c1.916-.181 23.673-1.517 50.014-.205 4.461.222 5.229 1.51 5.328 4.875.183 6.199.152 5.138.183 6.219l-.609.609-.1-.1c-.098-.098-.256-.098-.354 0s-.098.256 0 .354l.1.1-.432.432c-.098.098-.098.256 0 .354s.256.098.354 0l.432-.432.611.611c.015.015.037.012.054.022l.026.924c-.009-.012-.006-.029-.017-.04-.098-.098-.256-.098-.354 0l-.543.543-.1-.1c-.098-.098-.256-.098-.354 0s-.098.256 0 .354l.1.1-.654.654c-.098.098-.098.256 0 .354.03.03.07.033.107.044-.037.012-.078.015-.107.044-.098.098-.098.256 0 .354l.93.931-1.418 1.418-.266-.266c-.098-.098-.256-.098-.354 0s-.098.256 0 .354l1.318 1.318-1.086 1.086-1.428-1.428c-.098-.098-.256-.098-.354 0s-.098.256 0 .354l1.428 1.428-1.473 1.473-1.086-1.086.383-.383c.098-.098.098-.256 0-.354s-.256-.098-.354 0l-.383.383-.377-.377c-.098-.098-.256-.098-.354 0s-.098.256 0 .354l.377.377-1.196 1.196-1.373-1.373c-.098-.098-.256-.098-.354 0s-.098.256 0 .354l1.373 1.373-1.705 1.705c-.077.077-.075.186-.031.279-1.103.05-2.21.093-3.32.126l1.646-1.646 1.274 1.274c.098.098.256.098.354 0s.098-.256 0-.354l-1.274-1.274 1.34-1.34c.098-.098.098-.256 0-.354s-.256-.098-.354 0l-1.34 1.34-.487-.487c-.098-.098-.256-.098-.354 0s-.098.256 0 .354l.487.487-1.705 1.705c-.086.086-.083.214-.018.311-.001 0-.169.008-.658.02-1.077.027-2.153.033-3.229.044.017-.01.038-.007.052-.021l1.816-1.816 1.376 1.376c.098.098.256.098.354 0s.098-.256 0-.354l-1.376-1.376 1.899-1.899c.098-.098.098-.256 0-.354s-.256-.098-.354 0l-1.899 1.899-.155-.155c-.098-.098-.256-.098-.354 0s-.098.256 0 .354l.155.155-1.816 1.816c-.098.098-.098.256 0 .354.016.016.04.014.06.025-1.938.017-.077.034-2.716-.004l1.173-1.173.819.82c.098.098.256.098.354 0s.098-.256 0-.354l-.819-.82 1.281-1.281c.098-.098.098-.256 0-.354s-.256-.098-.354 0l-1.281 1.281-.598-.598c-.098-.098-.256-.098-.354 0s-.098.256 0 .354l.598.598-1.263 1.263c-.07.07-.072.165-.042.253-1.418-.027-2.828-.07-4.239-.136l1.745-1.745 1.443 1.443c.098.098.256.098.354 0s.098-.256 0-.354l-1.443-1.443.374-.374c.098-.098.098-.256 0-.354s-.256-.098-.354 0l-.424.424c-.066-.001-.132.021-.182.071s-.073.116-.071.182l-1.639 1.639c.038-.091.038-.194-.036-.268l-1.013-1.013c.04-.092.041-.196-.034-.271s-.18-.074-.271-.034l-.345-.345c-.098-.098-.256-.098-.354 0s-.098.256 0 .354l.321.321-1.049 1.049c-.011-.021-.009-.046-.026-.063l-1.096-1.096.474-.474c.098-.098.098-.256 0-.354s-.256-.098-.354 0l-.478.478c-.098-.086-.245-.087-.339.006s-.092.24-.006.339l-1.035 1.035-.864-.864.474-.474c.098-.098.098-.256 0-.354s-.256-.098-.354 0l-.502.502c-.089-.034-.188-.033-.26.039s-.073.171-.039.26l-1.29 1.29c.042-.092.044-.199-.032-.275l-1.053-1.053c-.017-.017-.043-.015-.063-.026l.571-.571c.098-.098.098-.256 0-.354s-.256-.098-.354 0l-2.158 2.158-1.317-1.318c-.098-.098-.256-.098-.354 0s-.098.256 0 .354l1.116 1.116-2.355.032c.032-.088.031-.186-.04-.257l-.072-.072 1.33-1.33c.098-.098.098-.256 0-.354s-.256-.098-.354 0l-1.324 1.328-.488-.488c-.098-.098-.256-.098-.354 0s-.098.256 0 .354l.488.488-.345.345c-3.339.046-7.166.117-11.13.093-6.22-.039-8.763-1.299-9.563-7.693-.662-5.294-.275-11.266.551-13.692.886-2.588 2.659-3.345 5.392-3.582zm26.618-1.783v-15.954c.641.083 1.272.266 1.881.552 4.877 2.279 7.669 9.962 8.645 15.513-3.989-.085-7.392-.115-10.526-.111zm-1-15.999v16.001c-.001 0-.003 0-.005 0-.022 0-.043 0-.065 0-2.929.004-6.927.042-11.958.182 1.528-6.381 5.455-15.896 12.028-16.183zm29.7 38.695c-.002.008-.004.016-.007.024-.29.899-.54 1.195-.867 1.604l-1.279-1.279 1.086-1.085.543.543c.098.098.256.098.354 0s.098-.256 0-.354l-1.594-1.595 1.418-1.418.487.487c.103.103.163.071.25.043-.009 1.002-.087 2.073-.391 3.03zm-2.974 3.203c-.08-.114-.906-.928-1.005-1.027l1.473-1.473 1.309 1.309c-.529.539-1.08.876-1.777 1.191zm-5.96 1.05 1.612-1.612 1.212 1.212c.098.098.256.098.354 0 .078-.078.076-.188.03-.281.098.098.256.097.353 0l1.041-1.041.873.873c-.05.019-.094.042-.146.06-.037.013-.072.028-.109.041-1.45.486-3.166.656-4.682.726-.119.006-.23.01-.348.016-.063.001-.127.002-.19.006zm3.177-.755-1.211-1.211 1.196-1.196 1.086 1.086-1.041 1.041c-.078.077-.076.187-.03.28zm5.808-7.809c-.098-.098-.256-.098-.354 0l-.045.045-.93-.931c-.03-.03-.07-.033-.107-.044.037-.012.078-.015.107-.044l.654-.654.83.831c.039.039.091.051.142.059l.017.607c.009.293.016.6.02.911l-.38-.38.045-.045c.099-.099.099-.257.001-.355zm.192-4.457-.292-.292.276-.276zm.087 3.076-.601-.601.543-.543c.016-.016.013-.039.024-.057zm-30.559 26.94c-.018-.002-.029-.002-.05-.004-7.231-.081-10.725-9.151-12.072-16.257 6.475-.092 7.648-.151 12.65.097v16.158l-.297.014c-.063.002-.131 0-.231-.008zm-4.64-18.405c.011.021.009.046.026.063l1.022 1.022c-.534-.012-1.069-.018-1.608-.021-.122-.001-.241-.007-.363-.007-.045 0-.091.001-.136.001zm3.082.13.864.864-.155.155c-.006.006-.004.016-.01.023-.305-.013-.615-.023-.924-.034-.186-.007-.365-.015-.552-.021-.069-.002-.135-.005-.204-.008zm2.601-.166 1.096 1.096c.017.017.043.015.063.026l-.063.063c-.046.046-.067.107-.069.167-1.494-.08-.936-.051-2.016-.102.018-.077.01-.154-.045-.217zm3.868 1.099c.109.109.179.073.268.036l-.356.356c-1-.049-.474-.018-2.174-.108l1.273-1.273zm1.71 14.493c-.203.203-.411.396-.621.578l-.04-.04 1.624-1.624c-.312.387-.631.756-.963 1.086zm-1.014.892c-.003.002-.006.005-.009.007zm-.394 1.504c.378-.234.745-.503 1.105-.792l.366.366-.218.218c-.044.044-.061.102-.066.159-.377.064-.759.121-1.145.173.003-.045-.02-.084-.042-.124zm3.158-1.406.675.675c.049.049.112.073.176.073-.675.181-1.368.335-2.071.472zm-1.333.626-.331-.331c.21-.184.418-.374.621-.577.125-.124.243-.266.365-.398l.326.326zm.992-1.674c.341-.395.672-.815.989-1.267l.481.481-1.128 1.128zm-.048-1.546c-.003-.06-.023-.12-.069-.165-.098-.098-.256-.098-.354 0l-1.954 1.954-.267-.267c-.098-.098-.256-.098-.354 0s-.098.256 0 .354l.267.267-.93.93-.86-.86c-.098-.098-.256-.098-.354 0s-.098.256 0 .354l.86.86-.232.232c-.71.332-1.447.562-2.208.689v-16.007c4.188.219 7.262.395 10.708.365-.639 3.985-1.849 8.032-4.253 11.294zm-33.428-12.025c1.251.228 2.735.275 3.973.285 3.812.02 7.039-.038 8.346-.055 1.052 5.671 3.501 12.947 8.402 15.908-10.217-1.43-17.437-7.624-20.721-16.138zm39.619 13.533c-1.554.757-3.206 1.366-4.947 1.833.063-.001.126-.024.174-.072.098-.098.098-.256 0-.354l-.675-.675 1.128-1.128 1.012 1.012c-.025.085-.022.176.046.243.097.097.156.072.243.046.114.114.269.099.361.007.088-.088.085-.22.015-.318l1.286-1.286.669.669c.098.098.256.098.354 0s.098-.256 0-.354l-.669-.669 1.572-1.572 1.371 1.371c.049.049.113.073.177.073.004 0 .008-.005.012-.005-.688.422-1.392.823-2.129 1.179zm-2.987.231-.98-.98 1.276-1.276.98.98zm5.354-2.136c.098.098.256.098.354 0l.811-.811.354.354c-.507.375-1.03.731-1.572 1.068.061-.097.064-.221-.02-.305l-1.371-1.371 1.177-1.177 1.079 1.078-.811.811c-.099.097-.099.255-.001.353zm1.924-.759-.406-.406 1.622-1.622.541.541c-.554.524-1.146 1.015-1.757 1.487zm2.107-1.843-.538-.538.98-.98.179.179c.098.098.256.098.354 0s.098-.256 0-.354l-.179-.179.319-.319c.098-.098.098-.256 0-.354s-.256-.098-.354 0l-.319.319-.98-.98 2.025-2.025c.007.009.004.021.012.029l.317.317-.416.416c-.098.098-.098.256 0 .354s.256.098.354 0l.416-.416.814.814c.008.008.02.005.029.012-.841 1.328-1.861 2.566-3.013 3.705zm3.266-4.14-.743-.743 1.157-1.157c.047-.047.068-.107.07-.168l.4.4c-.108.226-.199.465-.314.686-.175.334-.375.657-.57.982zm1.106-2.153-1.137-1.137c-.098-.098-.256-.098-.354 0s-.098.256 0 .354l.613.613c-.061.002-.122.023-.168.07l-1.157 1.157-.317-.317c-.058-.058-.135-.07-.21-.06-.012-.03-.012-.064-.037-.089-.098-.098-.256-.098-.354 0l-2.144 2.144-.119-.119c-.098-.098-.256-.098-.354 0s-.098.256 0 .354l.119.119-.219.219c-.098.098-.098.256 0 .354s.256.098.354 0l.219-.219.98.98-.98.98-2.194-2.193c-.098-.098-.256-.098-.354 0s-.098.256 0 .354l2.194 2.193-1.621 1.622-1.079-1.078 1.15-1.15c.098-.098.098-.256 0-.354s-.256-.098-.354 0l-1.15 1.15-1.157-1.156c-.098-.098-.256-.098-.354 0s-.098.256 0 .354l1.157 1.156-1.177 1.177-1.7-1.7c-.098-.098-.256-.098-.354 0s-.098.256 0 .354l1.7 1.7-1.572 1.572-.98-.98 1.256-1.256c.098-.098.098-.256 0-.354s-.256-.098-.354 0l-1.256 1.256-.317-.317c-.098-.098-.256-.098-.354 0s-.098.256 0 .354l.317.317-1.276 1.276-.554-.554c2.238-3.388 3.32-7.188 3.945-11.16 2.818-.019 10.019-.104 12.746-.788-.288.997-.648 1.915-1.043 2.802zm.599-29.59c-1.572-.105-7.37-.343-12.475-.472-.953-5.614-3.526-12.971-8.35-15.957 9.629 1.148 17.767 7.721 20.825 16.429zm-29.462-16.07c-4.641 3.17-7.334 10.215-8.61 15.678-1.255.038-5.787.17-11.448.479-.117.006-.233.015-.349.022 3.824-8.095 11.229-14.344 20.407-16.179z" fill="#000000" style="fill: rgb(2, 62, 242);"></path><path d="m4.4 27.346c.018.125.125.215.247.215.012 0 .023-.001.035-.002.137-.019.232-.146.213-.282-.132-.936.308-1.813.929-2.469.233.234.505.43.819.536.133.044.273-.027.317-.157.044-.131-.026-.272-.157-.317-.236-.08-.441-.227-.619-.402.199-.166.405-.317.614-.435.437-.245.912-.408 1.402-.541.176.318.388.615.639.878.095.1.254.104.354.009s.104-.253.009-.354c-.192-.202-.356-.43-.498-.67 1-.209 2.114-.281 3.355-.389.094.219.211.428.366.609.092.106.249.116.353.027.105-.09.117-.248.027-.353-.086-.101-.158-.212-.22-.329.679-.059 1.361-.116 2.052-.173.046.249.107.495.195.735.047.129.191.196.321.149.13-.048.196-.191.149-.321-.072-.197-.12-.4-.161-.604 1.263-.103 2.54-.197 3.833-.282.055.21.116.42.209.617.059.124.207.177.333.119.125-.06.178-.208.119-.333-.066-.139-.104-.289-.148-.436.828-.052 1.66-.093 2.496-.132l.056.694c.01.131.12.23.249.23.007 0 .014 0 .021-.001.138-.011.24-.131.229-.269l-.055-.678c1.044-.045 2.089-.075 3.137-.092l.055.879c.008.132.118.234.249.234h.016c.138-.009.243-.127.234-.265l-.054-.859c.832-.01 1.662-.001 2.493.011l.037.718c.015.302.168.581.458.581.009 0 .018 0 .026-.001.138-.009.242-.128.233-.266-.007-.115-.091-.207-.199-.229-.008-.024-.018-.063-.02-.111l-.036-.688c.622.013 1.24.04 1.86.068l-.028.703c-.005.138.102.254.24.26h.01c.134 0 .245-.105.25-.24l.028-.698c.714.036 1.426.08 2.134.139-.013.277-.042.554-.103.822-.031.134.054.269.188.299.13.031.268-.051.299-.188.066-.288.095-.586.111-.885.65.059 1.303.109 1.946.189.135.02.262-.081.279-.217.017-.137-.08-.262-.217-.279-.667-.083-1.343-.135-2.017-.195-.009-.217-.009-.435-.044-.648-.023-.137-.152-.225-.288-.205-.136.023-.228.152-.205.288.029.169.026.343.035.516-.697-.057-1.396-.098-2.099-.134l.027-.674c.005-.138-.102-.254-.24-.26-.166-.003-.254.103-.26.24l-.026.669c-.634-.028-1.268-.055-1.905-.068l-.012-.229c-.007-.138-.116-.258-.262-.237-.138.007-.244.125-.237.262l.01.199c-.833-.012-1.665-.02-2.498-.01l-.018-.289c-.008-.137-.115-.248-.265-.234-.138.009-.243.127-.234.265l.017.269c-1.051.017-2.1.048-3.146.093l-.032-.397c-.011-.138-.126-.233-.269-.229-.138.011-.24.131-.229.269l.031.381c-.856.04-1.709.083-2.558.136-.018-.141-.044-.281-.042-.424.002-.138-.107-.252-.246-.254-.143-.011-.252.107-.254.246-.003.156.028.31.046.466-1.284.084-2.553.178-3.807.28-.009-.121-.029-.241-.028-.363.002-.138-.108-.252-.246-.254-.001 0-.002 0-.004 0-.136 0-.248.109-.25.246-.002.138.021.274.031.411-.734.061-1.457.121-2.177.184-.034-.154-.055-.311-.049-.469.006-.138-.102-.254-.239-.261-.171-.009-.255.101-.261.239-.008.179.013.358.047.534-1.292.113-2.361.184-3.415.416-.059-.139-.135-.272-.177-.417-.039-.133-.179-.21-.31-.171-.133.039-.209.177-.171.31.041.142.093.281.149.418-.495.14-.978.31-1.429.563-.232.13-.457.293-.674.472-.094-.172-.17-.353-.198-.547-.02-.137-.152-.23-.283-.212-.137.02-.231.146-.212.283.042.293.166.564.323.814-.748.76-1.269 1.797-1.109 2.938z" fill="#000000" style="fill: rgb(2, 62, 242);"></path></g></svg>